<mxfile host="app.diagrams.net" modified="2024-04-13T08:39:45.977Z" agent="Mozilla/5.0 (Windows NT 10.0; Win64; x64) AppleWebKit/537.36 (KHTML, like Gecko) Chrome/123.0.0.0 Safari/537.36" etag="cat3Id8YirxiXD-hDlI8" version="24.2.5" type="device">
  <diagram name="Страница — 1" id="bzWkF0cimZTReQdqwtJ3">
    <mxGraphModel dx="989" dy="538" grid="0" gridSize="10" guides="1" tooltips="1" connect="1" arrows="1" fold="1" page="1" pageScale="1" pageWidth="827" pageHeight="1169" math="0" shadow="0">
      <root>
        <mxCell id="0" />
        <mxCell id="1" parent="0" />
        <mxCell id="v_8LGt5vR6UrCHvISSMG-9" value="" style="rounded=0;whiteSpace=wrap;html=1;fillColor=#CCCCCC;" parent="1" vertex="1">
          <mxGeometry x="200" y="200" width="40" height="40" as="geometry" />
        </mxCell>
        <mxCell id="v_8LGt5vR6UrCHvISSMG-10" value="" style="rounded=0;whiteSpace=wrap;html=1;fillColor=#CCCCCC;" parent="1" vertex="1">
          <mxGeometry x="240" y="200" width="40" height="40" as="geometry" />
        </mxCell>
        <mxCell id="v_8LGt5vR6UrCHvISSMG-11" value="" style="rounded=0;whiteSpace=wrap;html=1;fillColor=#CCCCCC;" parent="1" vertex="1">
          <mxGeometry x="280" y="200" width="40" height="40" as="geometry" />
        </mxCell>
        <mxCell id="v_8LGt5vR6UrCHvISSMG-12" value="" style="rounded=0;whiteSpace=wrap;html=1;fillColor=#CCCCCC;" parent="1" vertex="1">
          <mxGeometry x="320" y="200" width="40" height="40" as="geometry" />
        </mxCell>
        <mxCell id="v_8LGt5vR6UrCHvISSMG-13" value="" style="rounded=0;whiteSpace=wrap;html=1;fillColor=none;" parent="1" vertex="1">
          <mxGeometry x="360" y="200" width="40" height="40" as="geometry" />
        </mxCell>
        <mxCell id="v_8LGt5vR6UrCHvISSMG-14" value="" style="rounded=0;whiteSpace=wrap;html=1;fillColor=none;" parent="1" vertex="1">
          <mxGeometry x="400" y="200" width="40" height="40" as="geometry" />
        </mxCell>
        <mxCell id="v_8LGt5vR6UrCHvISSMG-15" value="" style="rounded=0;whiteSpace=wrap;html=1;fillColor=none;" parent="1" vertex="1">
          <mxGeometry x="440" y="200" width="40" height="40" as="geometry" />
        </mxCell>
        <mxCell id="v_8LGt5vR6UrCHvISSMG-18" value="" style="rounded=0;whiteSpace=wrap;html=1;fillColor=#CCCCCC;" parent="1" vertex="1">
          <mxGeometry x="200" y="120" width="40" height="40" as="geometry" />
        </mxCell>
        <mxCell id="v_8LGt5vR6UrCHvISSMG-19" value="" style="rounded=0;whiteSpace=wrap;html=1;fillColor=#CCCCCC;" parent="1" vertex="1">
          <mxGeometry x="240" y="120" width="40" height="40" as="geometry" />
        </mxCell>
        <mxCell id="v_8LGt5vR6UrCHvISSMG-20" value="" style="rounded=0;whiteSpace=wrap;html=1;fillColor=#CCCCCC;" parent="1" vertex="1">
          <mxGeometry x="280" y="120" width="40" height="40" as="geometry" />
        </mxCell>
        <mxCell id="v_8LGt5vR6UrCHvISSMG-21" value="" style="rounded=0;whiteSpace=wrap;html=1;fillColor=#CCCCCC;" parent="1" vertex="1">
          <mxGeometry x="320" y="120" width="40" height="40" as="geometry" />
        </mxCell>
        <mxCell id="v_8LGt5vR6UrCHvISSMG-22" value="" style="rounded=0;whiteSpace=wrap;html=1;fillColor=#CCCCCC;" parent="1" vertex="1">
          <mxGeometry x="360" y="120" width="40" height="40" as="geometry" />
        </mxCell>
        <mxCell id="v_8LGt5vR6UrCHvISSMG-23" value="" style="rounded=0;whiteSpace=wrap;html=1;fillColor=#CCCCCC;" parent="1" vertex="1">
          <mxGeometry x="400" y="120" width="40" height="40" as="geometry" />
        </mxCell>
        <mxCell id="v_8LGt5vR6UrCHvISSMG-24" value="" style="rounded=0;whiteSpace=wrap;html=1;fillColor=#CCCCCC;" parent="1" vertex="1">
          <mxGeometry x="440" y="120" width="40" height="40" as="geometry" />
        </mxCell>
        <mxCell id="v_8LGt5vR6UrCHvISSMG-25" value="" style="rounded=0;whiteSpace=wrap;html=1;fillColor=#CCCCCC;" parent="1" vertex="1">
          <mxGeometry x="480" y="120" width="40" height="40" as="geometry" />
        </mxCell>
        <mxCell id="v_8LGt5vR6UrCHvISSMG-27" value="" style="rounded=0;whiteSpace=wrap;html=1;fillColor=#CCCCCC;" parent="1" vertex="1">
          <mxGeometry x="160" y="200" width="40" height="40" as="geometry" />
        </mxCell>
        <mxCell id="v_8LGt5vR6UrCHvISSMG-28" value="" style="rounded=0;whiteSpace=wrap;html=1;fillColor=#CCCCCC;" parent="1" vertex="1">
          <mxGeometry x="160" y="120" width="40" height="40" as="geometry" />
        </mxCell>
        <mxCell id="v_8LGt5vR6UrCHvISSMG-48" value="" style="rounded=0;whiteSpace=wrap;html=1;fillColor=#CCCCCC;" parent="1" vertex="1">
          <mxGeometry x="320" y="520" width="40" height="40" as="geometry" />
        </mxCell>
        <mxCell id="v_8LGt5vR6UrCHvISSMG-49" value="" style="rounded=0;whiteSpace=wrap;html=1;fillColor=#CCCCCC;" parent="1" vertex="1">
          <mxGeometry x="400" y="520" width="40" height="40" as="geometry" />
        </mxCell>
        <mxCell id="v_8LGt5vR6UrCHvISSMG-51" value="" style="rounded=0;whiteSpace=wrap;html=1;fillColor=#CCCCCC;" parent="1" vertex="1">
          <mxGeometry x="240" y="520" width="40" height="40" as="geometry" />
        </mxCell>
        <mxCell id="v_8LGt5vR6UrCHvISSMG-55" value="" style="endArrow=blockThin;html=1;rounded=0;exitX=0;exitY=0.25;exitDx=0;exitDy=0;endFill=1;startArrow=blockThin;startFill=1;" parent="1" edge="1">
          <mxGeometry width="50" height="50" relative="1" as="geometry">
            <mxPoint x="240" y="539.89" as="sourcePoint" />
            <mxPoint x="200" y="539.89" as="targetPoint" />
          </mxGeometry>
        </mxCell>
        <mxCell id="v_8LGt5vR6UrCHvISSMG-66" value="" style="rounded=0;whiteSpace=wrap;html=1;fillColor=#CCCCCC;" parent="1" vertex="1">
          <mxGeometry x="240" y="600" width="40" height="40" as="geometry" />
        </mxCell>
        <mxCell id="v_8LGt5vR6UrCHvISSMG-68" value="" style="rounded=0;whiteSpace=wrap;html=1;fillColor=#CCCCCC;" parent="1" vertex="1">
          <mxGeometry x="320" y="600" width="40" height="40" as="geometry" />
        </mxCell>
        <mxCell id="v_8LGt5vR6UrCHvISSMG-70" value="" style="rounded=0;whiteSpace=wrap;html=1;fillColor=#CCCCCC;" parent="1" vertex="1">
          <mxGeometry x="400" y="600" width="40" height="40" as="geometry" />
        </mxCell>
        <mxCell id="v_8LGt5vR6UrCHvISSMG-73" value="" style="rounded=0;whiteSpace=wrap;html=1;fillColor=#CCCCCC;" parent="1" vertex="1">
          <mxGeometry x="160" y="600" width="40" height="40" as="geometry" />
        </mxCell>
        <mxCell id="v_8LGt5vR6UrCHvISSMG-74" value="" style="endArrow=blockThin;html=1;rounded=0;exitX=1;exitY=0.5;exitDx=0;exitDy=0;endFill=1;" parent="1" edge="1">
          <mxGeometry width="50" height="50" relative="1" as="geometry">
            <mxPoint x="200" y="619.76" as="sourcePoint" />
            <mxPoint x="240" y="619.76" as="targetPoint" />
          </mxGeometry>
        </mxCell>
        <mxCell id="v_8LGt5vR6UrCHvISSMG-75" value="" style="endArrow=blockThin;html=1;rounded=0;exitX=1;exitY=0.5;exitDx=0;exitDy=0;endFill=1;" parent="1" edge="1">
          <mxGeometry width="50" height="50" relative="1" as="geometry">
            <mxPoint x="280" y="619.76" as="sourcePoint" />
            <mxPoint x="320" y="619.76" as="targetPoint" />
          </mxGeometry>
        </mxCell>
        <mxCell id="v_8LGt5vR6UrCHvISSMG-76" value="" style="endArrow=blockThin;html=1;rounded=0;exitX=1;exitY=0.5;exitDx=0;exitDy=0;endFill=1;" parent="1" edge="1">
          <mxGeometry width="50" height="50" relative="1" as="geometry">
            <mxPoint x="360" y="619.76" as="sourcePoint" />
            <mxPoint x="400" y="619.76" as="targetPoint" />
          </mxGeometry>
        </mxCell>
        <mxCell id="v_8LGt5vR6UrCHvISSMG-77" value="" style="endArrow=blockThin;html=1;rounded=0;exitX=1;exitY=0.5;exitDx=0;exitDy=0;endFill=1;" parent="1" edge="1">
          <mxGeometry width="50" height="50" relative="1" as="geometry">
            <mxPoint x="440" y="619.76" as="sourcePoint" />
            <mxPoint x="480" y="619.76" as="targetPoint" />
          </mxGeometry>
        </mxCell>
        <mxCell id="v_8LGt5vR6UrCHvISSMG-81" value="" style="endArrow=none;html=1;rounded=0;exitX=0;exitY=1;exitDx=0;exitDy=0;strokeWidth=4;" parent="1" edge="1">
          <mxGeometry width="50" height="50" relative="1" as="geometry">
            <mxPoint x="160" y="160" as="sourcePoint" />
            <mxPoint x="160" y="120" as="targetPoint" />
          </mxGeometry>
        </mxCell>
        <mxCell id="v_8LGt5vR6UrCHvISSMG-82" value="" style="endArrow=none;html=1;rounded=0;exitX=0;exitY=1;exitDx=0;exitDy=0;strokeWidth=4;" parent="1" edge="1">
          <mxGeometry width="50" height="50" relative="1" as="geometry">
            <mxPoint x="160" y="240" as="sourcePoint" />
            <mxPoint x="160" y="200" as="targetPoint" />
          </mxGeometry>
        </mxCell>
        <mxCell id="v_8LGt5vR6UrCHvISSMG-83" value="" style="endArrow=none;html=1;rounded=0;exitX=0;exitY=1;exitDx=0;exitDy=0;strokeWidth=4;" parent="1" edge="1">
          <mxGeometry width="50" height="50" relative="1" as="geometry">
            <mxPoint x="520" y="160" as="sourcePoint" />
            <mxPoint x="520" y="120" as="targetPoint" />
          </mxGeometry>
        </mxCell>
        <mxCell id="v_8LGt5vR6UrCHvISSMG-84" value="&lt;font size=&quot;1&quot; face=&quot;Verdana&quot;&gt;&lt;b style=&quot;font-size: 16px;&quot;&gt;Array&lt;/b&gt;&lt;/font&gt;" style="text;html=1;strokeColor=default;fillColor=none;align=center;verticalAlign=middle;whiteSpace=wrap;rounded=0;" parent="1" vertex="1">
          <mxGeometry x="40" y="120" width="80" height="40" as="geometry" />
        </mxCell>
        <mxCell id="v_8LGt5vR6UrCHvISSMG-85" value="&lt;font size=&quot;1&quot; face=&quot;Verdana&quot;&gt;&lt;b style=&quot;font-size: 16px;&quot;&gt;Vector&lt;/b&gt;&lt;/font&gt;" style="text;html=1;strokeColor=default;fillColor=none;align=center;verticalAlign=middle;whiteSpace=wrap;rounded=0;" parent="1" vertex="1">
          <mxGeometry x="40" y="200" width="80" height="40" as="geometry" />
        </mxCell>
        <mxCell id="v_8LGt5vR6UrCHvISSMG-86" value="&lt;font size=&quot;1&quot; face=&quot;Verdana&quot;&gt;&lt;b style=&quot;font-size: 16px;&quot;&gt;Deque&lt;/b&gt;&lt;/font&gt;" style="text;html=1;strokeColor=default;fillColor=none;align=center;verticalAlign=middle;whiteSpace=wrap;rounded=0;" parent="1" vertex="1">
          <mxGeometry x="40" y="360" width="80" height="40" as="geometry" />
        </mxCell>
        <mxCell id="v_8LGt5vR6UrCHvISSMG-87" value="&lt;font style=&quot;&quot; face=&quot;Verdana&quot;&gt;&lt;span style=&quot;font-size: 16px; font-weight: bold;&quot;&gt;List&lt;/span&gt;&lt;br&gt;&lt;font style=&quot;font-size: 8px;&quot;&gt;(doubly-linked)&lt;/font&gt;&lt;br&gt;&lt;/font&gt;" style="text;html=1;strokeColor=default;fillColor=none;align=center;verticalAlign=middle;whiteSpace=wrap;rounded=0;" parent="1" vertex="1">
          <mxGeometry x="40" y="520" width="80" height="40" as="geometry" />
        </mxCell>
        <mxCell id="v_8LGt5vR6UrCHvISSMG-88" value="&lt;font style=&quot;&quot; face=&quot;Verdana&quot;&gt;&lt;b style=&quot;font-size: 16px;&quot;&gt;List&lt;/b&gt;&lt;br&gt;&lt;font style=&quot;font-size: 8px;&quot;&gt;(singly-linked)&lt;/font&gt;&lt;br&gt;&lt;/font&gt;" style="text;html=1;strokeColor=default;fillColor=none;align=center;verticalAlign=middle;whiteSpace=wrap;rounded=0;" parent="1" vertex="1">
          <mxGeometry x="40" y="600" width="80" height="40" as="geometry" />
        </mxCell>
        <mxCell id="v_8LGt5vR6UrCHvISSMG-89" value="" style="endArrow=none;html=1;rounded=0;exitX=1;exitY=0;exitDx=0;exitDy=0;" parent="1" source="v_8LGt5vR6UrCHvISSMG-15" edge="1">
          <mxGeometry width="50" height="50" relative="1" as="geometry">
            <mxPoint x="510" y="230" as="sourcePoint" />
            <mxPoint x="520" y="200" as="targetPoint" />
          </mxGeometry>
        </mxCell>
        <mxCell id="v_8LGt5vR6UrCHvISSMG-90" value="" style="endArrow=none;html=1;rounded=0;exitX=1;exitY=0;exitDx=0;exitDy=0;" parent="1" edge="1">
          <mxGeometry width="50" height="50" relative="1" as="geometry">
            <mxPoint x="480" y="240" as="sourcePoint" />
            <mxPoint x="520" y="240" as="targetPoint" />
          </mxGeometry>
        </mxCell>
        <mxCell id="v_8LGt5vR6UrCHvISSMG-96" value="" style="endArrow=none;html=1;rounded=0;exitX=1;exitY=0;exitDx=0;exitDy=0;" parent="1" edge="1">
          <mxGeometry width="50" height="50" relative="1" as="geometry">
            <mxPoint x="480" y="520" as="sourcePoint" />
            <mxPoint x="520" y="520" as="targetPoint" />
          </mxGeometry>
        </mxCell>
        <mxCell id="v_8LGt5vR6UrCHvISSMG-97" value="" style="endArrow=none;html=1;rounded=0;exitX=1;exitY=0;exitDx=0;exitDy=0;" parent="1" edge="1">
          <mxGeometry width="50" height="50" relative="1" as="geometry">
            <mxPoint x="480" y="560" as="sourcePoint" />
            <mxPoint x="520" y="560" as="targetPoint" />
          </mxGeometry>
        </mxCell>
        <mxCell id="v_8LGt5vR6UrCHvISSMG-98" value="" style="endArrow=none;html=1;rounded=0;exitX=1;exitY=0;exitDx=0;exitDy=0;" parent="1" edge="1">
          <mxGeometry width="50" height="50" relative="1" as="geometry">
            <mxPoint x="160" y="520" as="sourcePoint" />
            <mxPoint x="200" y="520" as="targetPoint" />
          </mxGeometry>
        </mxCell>
        <mxCell id="v_8LGt5vR6UrCHvISSMG-99" value="" style="endArrow=none;html=1;rounded=0;exitX=1;exitY=0;exitDx=0;exitDy=0;" parent="1" edge="1">
          <mxGeometry width="50" height="50" relative="1" as="geometry">
            <mxPoint x="160" y="560" as="sourcePoint" />
            <mxPoint x="200" y="560" as="targetPoint" />
          </mxGeometry>
        </mxCell>
        <mxCell id="v_8LGt5vR6UrCHvISSMG-100" value="" style="endArrow=none;html=1;rounded=0;" parent="1" edge="1">
          <mxGeometry width="50" height="50" relative="1" as="geometry">
            <mxPoint x="200" y="520" as="sourcePoint" />
            <mxPoint x="200" y="560" as="targetPoint" />
          </mxGeometry>
        </mxCell>
        <mxCell id="v_8LGt5vR6UrCHvISSMG-101" value="" style="endArrow=none;html=1;rounded=0;" parent="1" edge="1">
          <mxGeometry width="50" height="50" relative="1" as="geometry">
            <mxPoint x="480" y="560" as="sourcePoint" />
            <mxPoint x="480" y="520" as="targetPoint" />
          </mxGeometry>
        </mxCell>
        <mxCell id="v_8LGt5vR6UrCHvISSMG-102" value="" style="endArrow=none;html=1;rounded=0;exitX=1;exitY=0;exitDx=0;exitDy=0;" parent="1" edge="1">
          <mxGeometry width="50" height="50" relative="1" as="geometry">
            <mxPoint x="480" y="600" as="sourcePoint" />
            <mxPoint x="520" y="600" as="targetPoint" />
          </mxGeometry>
        </mxCell>
        <mxCell id="v_8LGt5vR6UrCHvISSMG-103" value="" style="endArrow=none;html=1;rounded=0;exitX=1;exitY=0;exitDx=0;exitDy=0;" parent="1" edge="1">
          <mxGeometry width="50" height="50" relative="1" as="geometry">
            <mxPoint x="480" y="640" as="sourcePoint" />
            <mxPoint x="520" y="640" as="targetPoint" />
          </mxGeometry>
        </mxCell>
        <mxCell id="v_8LGt5vR6UrCHvISSMG-104" value="" style="endArrow=none;html=1;rounded=0;" parent="1" edge="1">
          <mxGeometry width="50" height="50" relative="1" as="geometry">
            <mxPoint x="480" y="640" as="sourcePoint" />
            <mxPoint x="480" y="600" as="targetPoint" />
          </mxGeometry>
        </mxCell>
        <mxCell id="v_8LGt5vR6UrCHvISSMG-126" value="" style="endArrow=blockThin;html=1;rounded=0;exitX=0.5;exitY=0;exitDx=0;exitDy=0;endFill=1;entryX=0.5;entryY=1;entryDx=0;entryDy=0;" parent="1" edge="1">
          <mxGeometry width="50" height="50" relative="1" as="geometry">
            <mxPoint x="339.31" y="300" as="sourcePoint" />
            <mxPoint x="259.31" y="460" as="targetPoint" />
            <Array as="points">
              <mxPoint x="339.31" y="280" />
              <mxPoint x="299.31" y="280" />
              <mxPoint x="299.31" y="440" />
              <mxPoint x="299.31" y="480" />
              <mxPoint x="259.31" y="480" />
            </Array>
          </mxGeometry>
        </mxCell>
        <mxCell id="v_8LGt5vR6UrCHvISSMG-127" value="" style="endArrow=blockThin;html=1;rounded=0;entryX=0.5;entryY=0;entryDx=0;entryDy=0;endFill=1;exitX=0.5;exitY=1;exitDx=0;exitDy=0;" parent="1" edge="1">
          <mxGeometry width="50" height="50" relative="1" as="geometry">
            <mxPoint x="339.31" y="460" as="sourcePoint" />
            <mxPoint x="419.31" y="300" as="targetPoint" />
            <Array as="points">
              <mxPoint x="339.31" y="480" />
              <mxPoint x="379.31" y="480" />
              <mxPoint x="379.31" y="280" />
              <mxPoint x="419.31" y="280" />
            </Array>
          </mxGeometry>
        </mxCell>
        <mxCell id="v_8LGt5vR6UrCHvISSMG-134" value="" style="rounded=0;whiteSpace=wrap;html=1;fillColor=#CCCCCC;" parent="1" vertex="1">
          <mxGeometry x="399.31" y="300" width="40" height="40" as="geometry" />
        </mxCell>
        <mxCell id="v_8LGt5vR6UrCHvISSMG-138" value="" style="rounded=0;whiteSpace=wrap;html=1;fillColor=#CCCCCC;" parent="1" vertex="1">
          <mxGeometry x="399.31" y="340" width="40" height="40" as="geometry" />
        </mxCell>
        <mxCell id="v_8LGt5vR6UrCHvISSMG-139" value="" style="rounded=0;whiteSpace=wrap;html=1;fillColor=#CCCCCC;" parent="1" vertex="1">
          <mxGeometry x="399.31" y="380" width="40" height="40" as="geometry" />
        </mxCell>
        <mxCell id="v_8LGt5vR6UrCHvISSMG-140" value="" style="rounded=0;whiteSpace=wrap;html=1;fillColor=#CCCCCC;" parent="1" vertex="1">
          <mxGeometry x="399.31" y="420" width="40" height="40" as="geometry" />
        </mxCell>
        <mxCell id="v_8LGt5vR6UrCHvISSMG-141" value="" style="rounded=0;whiteSpace=wrap;html=1;fillColor=#CCCCCC;" parent="1" vertex="1">
          <mxGeometry x="319.31" y="300" width="40" height="40" as="geometry" />
        </mxCell>
        <mxCell id="v_8LGt5vR6UrCHvISSMG-142" value="" style="rounded=0;whiteSpace=wrap;html=1;fillColor=#CCCCCC;" parent="1" vertex="1">
          <mxGeometry x="319.31" y="340" width="40" height="40" as="geometry" />
        </mxCell>
        <mxCell id="v_8LGt5vR6UrCHvISSMG-143" value="" style="rounded=0;whiteSpace=wrap;html=1;fillColor=#CCCCCC;" parent="1" vertex="1">
          <mxGeometry x="319.31" y="380" width="40" height="40" as="geometry" />
        </mxCell>
        <mxCell id="v_8LGt5vR6UrCHvISSMG-144" value="" style="rounded=0;whiteSpace=wrap;html=1;fillColor=#CCCCCC;" parent="1" vertex="1">
          <mxGeometry x="319.31" y="420" width="40" height="40" as="geometry" />
        </mxCell>
        <mxCell id="v_8LGt5vR6UrCHvISSMG-145" value="" style="rounded=0;whiteSpace=wrap;html=1;fillColor=#CCCCCC;" parent="1" vertex="1">
          <mxGeometry x="239.31" y="300" width="40" height="40" as="geometry" />
        </mxCell>
        <mxCell id="v_8LGt5vR6UrCHvISSMG-146" value="" style="rounded=0;whiteSpace=wrap;html=1;fillColor=#CCCCCC;" parent="1" vertex="1">
          <mxGeometry x="239.31" y="340" width="40" height="40" as="geometry" />
        </mxCell>
        <mxCell id="v_8LGt5vR6UrCHvISSMG-147" value="" style="rounded=0;whiteSpace=wrap;html=1;fillColor=#CCCCCC;" parent="1" vertex="1">
          <mxGeometry x="239.31" y="380" width="40" height="40" as="geometry" />
        </mxCell>
        <mxCell id="v_8LGt5vR6UrCHvISSMG-148" value="" style="rounded=0;whiteSpace=wrap;html=1;fillColor=#CCCCCC;" parent="1" vertex="1">
          <mxGeometry x="239.31" y="420" width="40" height="40" as="geometry" />
        </mxCell>
        <mxCell id="v_8LGt5vR6UrCHvISSMG-149" value="" style="rounded=0;whiteSpace=wrap;html=1;fillColor=#CCCCCC;" parent="1" vertex="1">
          <mxGeometry x="479.31" y="300" width="40" height="40" as="geometry" />
        </mxCell>
        <mxCell id="v_8LGt5vR6UrCHvISSMG-150" value="" style="rounded=0;whiteSpace=wrap;html=1;fillColor=#CCCCCC;" parent="1" vertex="1">
          <mxGeometry x="479.31" y="340" width="40" height="40" as="geometry" />
        </mxCell>
        <mxCell id="v_8LGt5vR6UrCHvISSMG-151" value="" style="rounded=0;whiteSpace=wrap;html=1;fillColor=none;" parent="1" vertex="1">
          <mxGeometry x="479.31" y="380" width="40" height="40" as="geometry" />
        </mxCell>
        <mxCell id="v_8LGt5vR6UrCHvISSMG-154" value="" style="rounded=0;whiteSpace=wrap;html=1;fillColor=none;" parent="1" vertex="1">
          <mxGeometry x="159.31" y="340" width="40" height="40" as="geometry" />
        </mxCell>
        <mxCell id="v_8LGt5vR6UrCHvISSMG-155" value="" style="rounded=0;whiteSpace=wrap;html=1;fillColor=#CCCCCC;" parent="1" vertex="1">
          <mxGeometry x="159.31" y="380" width="40" height="40" as="geometry" />
        </mxCell>
        <mxCell id="v_8LGt5vR6UrCHvISSMG-156" value="" style="rounded=0;whiteSpace=wrap;html=1;fillColor=#CCCCCC;" parent="1" vertex="1">
          <mxGeometry x="159.31" y="420" width="40" height="40" as="geometry" />
        </mxCell>
        <mxCell id="v_8LGt5vR6UrCHvISSMG-157" value="" style="endArrow=none;html=1;rounded=0;exitX=0;exitY=0;exitDx=0;exitDy=0;" parent="1" source="v_8LGt5vR6UrCHvISSMG-154" edge="1">
          <mxGeometry width="50" height="50" relative="1" as="geometry">
            <mxPoint x="129.31" y="320" as="sourcePoint" />
            <mxPoint x="159.31" y="300" as="targetPoint" />
          </mxGeometry>
        </mxCell>
        <mxCell id="v_8LGt5vR6UrCHvISSMG-158" value="" style="endArrow=none;html=1;rounded=0;exitX=0;exitY=0;exitDx=0;exitDy=0;" parent="1" edge="1">
          <mxGeometry width="50" height="50" relative="1" as="geometry">
            <mxPoint x="199.31" y="340" as="sourcePoint" />
            <mxPoint x="199.31" y="300" as="targetPoint" />
          </mxGeometry>
        </mxCell>
        <mxCell id="v_8LGt5vR6UrCHvISSMG-159" value="" style="endArrow=none;html=1;rounded=0;exitX=0;exitY=0;exitDx=0;exitDy=0;" parent="1" edge="1">
          <mxGeometry width="50" height="50" relative="1" as="geometry">
            <mxPoint x="479.31" y="460" as="sourcePoint" />
            <mxPoint x="479.31" y="420" as="targetPoint" />
          </mxGeometry>
        </mxCell>
        <mxCell id="v_8LGt5vR6UrCHvISSMG-160" value="" style="endArrow=none;html=1;rounded=0;exitX=0;exitY=0;exitDx=0;exitDy=0;" parent="1" edge="1">
          <mxGeometry width="50" height="50" relative="1" as="geometry">
            <mxPoint x="519.31" y="460" as="sourcePoint" />
            <mxPoint x="519.31" y="420" as="targetPoint" />
          </mxGeometry>
        </mxCell>
        <mxCell id="v_8LGt5vR6UrCHvISSMG-161" value="" style="endArrow=blockThin;html=1;rounded=0;exitX=0.5;exitY=0;exitDx=0;exitDy=0;endFill=1;entryX=0.5;entryY=1;entryDx=0;entryDy=0;" parent="1" edge="1">
          <mxGeometry width="50" height="50" relative="1" as="geometry">
            <mxPoint x="259.31" y="300" as="sourcePoint" />
            <mxPoint x="179.31" y="460" as="targetPoint" />
            <Array as="points">
              <mxPoint x="259.31" y="280" />
              <mxPoint x="219.31" y="280" />
              <mxPoint x="219.31" y="440" />
              <mxPoint x="219.31" y="480" />
              <mxPoint x="179.31" y="480" />
            </Array>
          </mxGeometry>
        </mxCell>
        <mxCell id="v_8LGt5vR6UrCHvISSMG-162" value="" style="endArrow=blockThin;html=1;rounded=0;entryX=0.5;entryY=0;entryDx=0;entryDy=0;endFill=1;exitX=0.5;exitY=1;exitDx=0;exitDy=0;" parent="1" edge="1">
          <mxGeometry width="50" height="50" relative="1" as="geometry">
            <mxPoint x="419.31" y="460" as="sourcePoint" />
            <mxPoint x="499.31" y="300" as="targetPoint" />
            <Array as="points">
              <mxPoint x="419.31" y="480" />
              <mxPoint x="459.31" y="480" />
              <mxPoint x="459.31" y="280" />
              <mxPoint x="499.31" y="280" />
            </Array>
          </mxGeometry>
        </mxCell>
        <mxCell id="v_8LGt5vR6UrCHvISSMG-163" value="" style="endArrow=none;html=1;rounded=0;exitX=0;exitY=1;exitDx=0;exitDy=0;strokeWidth=4;" parent="1" edge="1">
          <mxGeometry width="50" height="50" relative="1" as="geometry">
            <mxPoint x="239.31" y="300" as="sourcePoint" />
            <mxPoint x="279.55" y="300" as="targetPoint" />
          </mxGeometry>
        </mxCell>
        <mxCell id="v_8LGt5vR6UrCHvISSMG-164" value="" style="endArrow=none;html=1;rounded=0;exitX=0;exitY=1;exitDx=0;exitDy=0;strokeWidth=4;" parent="1" edge="1">
          <mxGeometry width="50" height="50" relative="1" as="geometry">
            <mxPoint x="319.07" y="300" as="sourcePoint" />
            <mxPoint x="359.31" y="300" as="targetPoint" />
          </mxGeometry>
        </mxCell>
        <mxCell id="v_8LGt5vR6UrCHvISSMG-165" value="" style="endArrow=none;html=1;rounded=0;exitX=0;exitY=1;exitDx=0;exitDy=0;strokeWidth=4;" parent="1" edge="1">
          <mxGeometry width="50" height="50" relative="1" as="geometry">
            <mxPoint x="399.07" y="300" as="sourcePoint" />
            <mxPoint x="439.31" y="300" as="targetPoint" />
          </mxGeometry>
        </mxCell>
        <mxCell id="v_8LGt5vR6UrCHvISSMG-166" value="" style="endArrow=none;html=1;rounded=0;exitX=0;exitY=0;exitDx=0;exitDy=0;strokeWidth=4;entryX=1;entryY=0;entryDx=0;entryDy=0;" parent="1" source="v_8LGt5vR6UrCHvISSMG-149" target="v_8LGt5vR6UrCHvISSMG-149" edge="1">
          <mxGeometry width="50" height="50" relative="1" as="geometry">
            <mxPoint x="510" y="280" as="sourcePoint" />
            <mxPoint x="550.2399999999999" y="280" as="targetPoint" />
          </mxGeometry>
        </mxCell>
        <mxCell id="v_8LGt5vR6UrCHvISSMG-167" value="" style="endArrow=none;html=1;rounded=0;exitX=0;exitY=1;exitDx=0;exitDy=0;strokeWidth=4;" parent="1" edge="1">
          <mxGeometry width="50" height="50" relative="1" as="geometry">
            <mxPoint x="239.19" y="460" as="sourcePoint" />
            <mxPoint x="279.43" y="460" as="targetPoint" />
          </mxGeometry>
        </mxCell>
        <mxCell id="v_8LGt5vR6UrCHvISSMG-168" value="" style="endArrow=none;html=1;rounded=0;exitX=0;exitY=1;exitDx=0;exitDy=0;strokeWidth=4;" parent="1" edge="1">
          <mxGeometry width="50" height="50" relative="1" as="geometry">
            <mxPoint x="319.31" y="460" as="sourcePoint" />
            <mxPoint x="359.55" y="460" as="targetPoint" />
          </mxGeometry>
        </mxCell>
        <mxCell id="v_8LGt5vR6UrCHvISSMG-169" value="" style="endArrow=none;html=1;rounded=0;exitX=0;exitY=1;exitDx=0;exitDy=0;strokeWidth=4;" parent="1" edge="1">
          <mxGeometry width="50" height="50" relative="1" as="geometry">
            <mxPoint x="399.07" y="460" as="sourcePoint" />
            <mxPoint x="439.31" y="460" as="targetPoint" />
          </mxGeometry>
        </mxCell>
        <mxCell id="v_8LGt5vR6UrCHvISSMG-170" value="" style="endArrow=none;html=1;rounded=0;exitX=0;exitY=1;exitDx=0;exitDy=0;strokeWidth=4;" parent="1" edge="1">
          <mxGeometry width="50" height="50" relative="1" as="geometry">
            <mxPoint x="479.07" y="460" as="sourcePoint" />
            <mxPoint x="519.31" y="460" as="targetPoint" />
          </mxGeometry>
        </mxCell>
        <mxCell id="v_8LGt5vR6UrCHvISSMG-171" value="" style="endArrow=none;html=1;rounded=0;exitX=0;exitY=1;exitDx=0;exitDy=0;strokeWidth=4;" parent="1" edge="1">
          <mxGeometry width="50" height="50" relative="1" as="geometry">
            <mxPoint x="159.31" y="460" as="sourcePoint" />
            <mxPoint x="199.55" y="460" as="targetPoint" />
          </mxGeometry>
        </mxCell>
        <mxCell id="v_8LGt5vR6UrCHvISSMG-172" value="" style="endArrow=none;html=1;rounded=0;exitX=0;exitY=1;exitDx=0;exitDy=0;strokeWidth=4;" parent="1" edge="1">
          <mxGeometry width="50" height="50" relative="1" as="geometry">
            <mxPoint x="159.31" y="300" as="sourcePoint" />
            <mxPoint x="199.55" y="300" as="targetPoint" />
          </mxGeometry>
        </mxCell>
        <mxCell id="v_8LGt5vR6UrCHvISSMG-173" value="" style="endArrow=none;html=1;rounded=0;" parent="1" edge="1">
          <mxGeometry width="50" height="50" relative="1" as="geometry">
            <mxPoint x="159.31" y="319.76" as="sourcePoint" />
            <mxPoint x="199.31" y="319.76" as="targetPoint" />
          </mxGeometry>
        </mxCell>
        <mxCell id="v_8LGt5vR6UrCHvISSMG-174" value="" style="endArrow=none;html=1;rounded=0;" parent="1" edge="1">
          <mxGeometry width="50" height="50" relative="1" as="geometry">
            <mxPoint x="159.31" y="359.76" as="sourcePoint" />
            <mxPoint x="199.31" y="359.76" as="targetPoint" />
          </mxGeometry>
        </mxCell>
        <mxCell id="v_8LGt5vR6UrCHvISSMG-175" value="" style="endArrow=none;html=1;rounded=0;" parent="1" edge="1">
          <mxGeometry width="50" height="50" relative="1" as="geometry">
            <mxPoint x="159.31" y="399.76" as="sourcePoint" />
            <mxPoint x="199.31" y="399.76" as="targetPoint" />
          </mxGeometry>
        </mxCell>
        <mxCell id="v_8LGt5vR6UrCHvISSMG-176" value="" style="endArrow=none;html=1;rounded=0;" parent="1" edge="1">
          <mxGeometry width="50" height="50" relative="1" as="geometry">
            <mxPoint x="159.31" y="439.76" as="sourcePoint" />
            <mxPoint x="199.31" y="439.76" as="targetPoint" />
          </mxGeometry>
        </mxCell>
        <mxCell id="v_8LGt5vR6UrCHvISSMG-177" value="" style="endArrow=none;html=1;rounded=0;" parent="1" edge="1">
          <mxGeometry width="50" height="50" relative="1" as="geometry">
            <mxPoint x="239.31" y="320" as="sourcePoint" />
            <mxPoint x="279.31" y="320" as="targetPoint" />
          </mxGeometry>
        </mxCell>
        <mxCell id="v_8LGt5vR6UrCHvISSMG-178" value="" style="endArrow=none;html=1;rounded=0;" parent="1" edge="1">
          <mxGeometry width="50" height="50" relative="1" as="geometry">
            <mxPoint x="239.31" y="360" as="sourcePoint" />
            <mxPoint x="279.31" y="360" as="targetPoint" />
          </mxGeometry>
        </mxCell>
        <mxCell id="v_8LGt5vR6UrCHvISSMG-179" value="" style="endArrow=none;html=1;rounded=0;" parent="1" edge="1">
          <mxGeometry width="50" height="50" relative="1" as="geometry">
            <mxPoint x="239.31" y="400" as="sourcePoint" />
            <mxPoint x="279.31" y="400" as="targetPoint" />
          </mxGeometry>
        </mxCell>
        <mxCell id="v_8LGt5vR6UrCHvISSMG-180" value="" style="endArrow=none;html=1;rounded=0;" parent="1" edge="1">
          <mxGeometry width="50" height="50" relative="1" as="geometry">
            <mxPoint x="239.31" y="440" as="sourcePoint" />
            <mxPoint x="279.31" y="440" as="targetPoint" />
          </mxGeometry>
        </mxCell>
        <mxCell id="v_8LGt5vR6UrCHvISSMG-181" value="" style="endArrow=none;html=1;rounded=0;" parent="1" edge="1">
          <mxGeometry width="50" height="50" relative="1" as="geometry">
            <mxPoint x="319.31" y="320" as="sourcePoint" />
            <mxPoint x="359.31" y="320" as="targetPoint" />
          </mxGeometry>
        </mxCell>
        <mxCell id="v_8LGt5vR6UrCHvISSMG-182" value="" style="endArrow=none;html=1;rounded=0;" parent="1" edge="1">
          <mxGeometry width="50" height="50" relative="1" as="geometry">
            <mxPoint x="319.31" y="360" as="sourcePoint" />
            <mxPoint x="359.31" y="360" as="targetPoint" />
          </mxGeometry>
        </mxCell>
        <mxCell id="v_8LGt5vR6UrCHvISSMG-183" value="" style="endArrow=none;html=1;rounded=0;" parent="1" edge="1">
          <mxGeometry width="50" height="50" relative="1" as="geometry">
            <mxPoint x="319.31" y="400" as="sourcePoint" />
            <mxPoint x="359.31" y="400" as="targetPoint" />
          </mxGeometry>
        </mxCell>
        <mxCell id="v_8LGt5vR6UrCHvISSMG-184" value="" style="endArrow=none;html=1;rounded=0;" parent="1" edge="1">
          <mxGeometry width="50" height="50" relative="1" as="geometry">
            <mxPoint x="319.31" y="440" as="sourcePoint" />
            <mxPoint x="359.31" y="440" as="targetPoint" />
          </mxGeometry>
        </mxCell>
        <mxCell id="v_8LGt5vR6UrCHvISSMG-185" value="" style="endArrow=none;html=1;rounded=0;" parent="1" edge="1">
          <mxGeometry width="50" height="50" relative="1" as="geometry">
            <mxPoint x="399.31" y="320" as="sourcePoint" />
            <mxPoint x="439.31" y="320" as="targetPoint" />
          </mxGeometry>
        </mxCell>
        <mxCell id="v_8LGt5vR6UrCHvISSMG-186" value="" style="endArrow=none;html=1;rounded=0;" parent="1" edge="1">
          <mxGeometry width="50" height="50" relative="1" as="geometry">
            <mxPoint x="399.31" y="360" as="sourcePoint" />
            <mxPoint x="439.31" y="360" as="targetPoint" />
          </mxGeometry>
        </mxCell>
        <mxCell id="v_8LGt5vR6UrCHvISSMG-187" value="" style="endArrow=none;html=1;rounded=0;" parent="1" edge="1">
          <mxGeometry width="50" height="50" relative="1" as="geometry">
            <mxPoint x="399.31" y="400" as="sourcePoint" />
            <mxPoint x="439.31" y="400" as="targetPoint" />
          </mxGeometry>
        </mxCell>
        <mxCell id="v_8LGt5vR6UrCHvISSMG-188" value="" style="endArrow=none;html=1;rounded=0;" parent="1" edge="1">
          <mxGeometry width="50" height="50" relative="1" as="geometry">
            <mxPoint x="399.31" y="440" as="sourcePoint" />
            <mxPoint x="439.31" y="440" as="targetPoint" />
          </mxGeometry>
        </mxCell>
        <mxCell id="v_8LGt5vR6UrCHvISSMG-189" value="" style="endArrow=none;html=1;rounded=0;" parent="1" edge="1">
          <mxGeometry width="50" height="50" relative="1" as="geometry">
            <mxPoint x="480" y="320" as="sourcePoint" />
            <mxPoint x="520" y="320" as="targetPoint" />
          </mxGeometry>
        </mxCell>
        <mxCell id="v_8LGt5vR6UrCHvISSMG-190" value="" style="endArrow=none;html=1;rounded=0;" parent="1" edge="1">
          <mxGeometry width="50" height="50" relative="1" as="geometry">
            <mxPoint x="480" y="360" as="sourcePoint" />
            <mxPoint x="520" y="360" as="targetPoint" />
          </mxGeometry>
        </mxCell>
        <mxCell id="v_8LGt5vR6UrCHvISSMG-191" value="" style="endArrow=none;html=1;rounded=0;" parent="1" edge="1">
          <mxGeometry width="50" height="50" relative="1" as="geometry">
            <mxPoint x="480" y="400" as="sourcePoint" />
            <mxPoint x="520" y="400" as="targetPoint" />
          </mxGeometry>
        </mxCell>
        <mxCell id="v_8LGt5vR6UrCHvISSMG-192" value="" style="endArrow=none;html=1;rounded=0;" parent="1" edge="1">
          <mxGeometry width="50" height="50" relative="1" as="geometry">
            <mxPoint x="480" y="440" as="sourcePoint" />
            <mxPoint x="520" y="440" as="targetPoint" />
          </mxGeometry>
        </mxCell>
        <mxCell id="v_8LGt5vR6UrCHvISSMG-193" value="" style="endArrow=none;html=1;rounded=0;exitX=0;exitY=1;exitDx=0;exitDy=0;strokeWidth=4;" parent="1" edge="1">
          <mxGeometry width="50" height="50" relative="1" as="geometry">
            <mxPoint x="160" y="640" as="sourcePoint" />
            <mxPoint x="160" y="600" as="targetPoint" />
          </mxGeometry>
        </mxCell>
        <mxCell id="egEi9GSgC4kIUhXUhpBA-1" value="" style="endArrow=blockThin;html=1;rounded=0;exitX=0;exitY=0.25;exitDx=0;exitDy=0;endFill=1;startArrow=blockThin;startFill=1;fontStyle=1" edge="1" parent="1">
          <mxGeometry width="50" height="50" relative="1" as="geometry">
            <mxPoint x="320" y="539.89" as="sourcePoint" />
            <mxPoint x="280" y="539.89" as="targetPoint" />
          </mxGeometry>
        </mxCell>
        <mxCell id="egEi9GSgC4kIUhXUhpBA-2" value="" style="endArrow=blockThin;html=1;rounded=0;exitX=0;exitY=0.25;exitDx=0;exitDy=0;endFill=1;startArrow=blockThin;startFill=1;" edge="1" parent="1">
          <mxGeometry width="50" height="50" relative="1" as="geometry">
            <mxPoint x="400" y="539.89" as="sourcePoint" />
            <mxPoint x="360" y="539.89" as="targetPoint" />
          </mxGeometry>
        </mxCell>
        <mxCell id="egEi9GSgC4kIUhXUhpBA-3" value="" style="endArrow=blockThin;html=1;rounded=0;exitX=0;exitY=0.25;exitDx=0;exitDy=0;endFill=1;startArrow=blockThin;startFill=1;" edge="1" parent="1">
          <mxGeometry width="50" height="50" relative="1" as="geometry">
            <mxPoint x="480" y="539.89" as="sourcePoint" />
            <mxPoint x="440" y="539.89" as="targetPoint" />
          </mxGeometry>
        </mxCell>
      </root>
    </mxGraphModel>
  </diagram>
</mxfile>
